<svg id="visual" viewBox="0 0 900 600" width="900" height="600" xmlns="http://www.w3.org/2000/svg" xmlns:xlink="http://www.w3.org/1999/xlink" version="1.1"><rect x="0" y="0" width="900" height="600" fill="#E8EDF6"></rect><defs><linearGradient id="grad1_0" x1="33.3%" y1="0%" x2="100%" y2="100%"><stop offset="20%" stop-color="#c0d3fa" stop-opacity="1"></stop><stop offset="80%" stop-color="#c0d3fa" stop-opacity="1"></stop></linearGradient></defs><defs><linearGradient id="grad1_1" x1="33.3%" y1="0%" x2="100%" y2="100%"><stop offset="20%" stop-color="#c0d3fa" stop-opacity="1"></stop><stop offset="80%" stop-color="#cadaf9" stop-opacity="1"></stop></linearGradient></defs><defs><linearGradient id="grad1_2" x1="33.3%" y1="0%" x2="100%" y2="100%"><stop offset="20%" stop-color="#d4e0f8" stop-opacity="1"></stop><stop offset="80%" stop-color="#cadaf9" stop-opacity="1"></stop></linearGradient></defs><defs><linearGradient id="grad1_3" x1="33.3%" y1="0%" x2="100%" y2="100%"><stop offset="20%" stop-color="#d4e0f8" stop-opacity="1"></stop><stop offset="80%" stop-color="#dee7f7" stop-opacity="1"></stop></linearGradient></defs><defs><linearGradient id="grad1_4" x1="33.3%" y1="0%" x2="100%" y2="100%"><stop offset="20%" stop-color="#e8edf6" stop-opacity="1"></stop><stop offset="80%" stop-color="#dee7f7" stop-opacity="1"></stop></linearGradient></defs><defs><linearGradient id="grad2_0" x1="0%" y1="0%" x2="66.7%" y2="100%"><stop offset="20%" stop-color="#c0d3fa" stop-opacity="1"></stop><stop offset="80%" stop-color="#c0d3fa" stop-opacity="1"></stop></linearGradient></defs><defs><linearGradient id="grad2_1" x1="0%" y1="0%" x2="66.7%" y2="100%"><stop offset="20%" stop-color="#cadaf9" stop-opacity="1"></stop><stop offset="80%" stop-color="#c0d3fa" stop-opacity="1"></stop></linearGradient></defs><defs><linearGradient id="grad2_2" x1="0%" y1="0%" x2="66.7%" y2="100%"><stop offset="20%" stop-color="#cadaf9" stop-opacity="1"></stop><stop offset="80%" stop-color="#d4e0f8" stop-opacity="1"></stop></linearGradient></defs><defs><linearGradient id="grad2_3" x1="0%" y1="0%" x2="66.7%" y2="100%"><stop offset="20%" stop-color="#dee7f7" stop-opacity="1"></stop><stop offset="80%" stop-color="#d4e0f8" stop-opacity="1"></stop></linearGradient></defs><defs><linearGradient id="grad2_4" x1="0%" y1="0%" x2="66.7%" y2="100%"><stop offset="20%" stop-color="#dee7f7" stop-opacity="1"></stop><stop offset="80%" stop-color="#e8edf6" stop-opacity="1"></stop></linearGradient></defs><g transform="translate(900, 0)"><path d="M0 540.8C-72.1 536.3 -144.2 531.7 -207 499.7C-269.7 467.6 -323 408 -345.8 345.8C-368.5 283.6 -360.6 218.8 -388 160.7C-415.4 102.7 -478.1 51.3 -540.8 0L0 0Z" fill="#e3eaf7"></path><path d="M0 432.7C-57.7 429 -115.4 425.4 -165.6 399.7C-215.8 374.1 -258.4 326.4 -276.6 276.6C-294.8 226.9 -288.5 175 -310.4 128.6C-332.3 82.1 -382.5 41.1 -432.7 0L0 0Z" fill="#d9e3f8"></path><path d="M0 324.5C-43.3 321.8 -86.5 319 -124.2 299.8C-161.8 280.6 -193.8 244.8 -207.5 207.5C-221.1 170.1 -216.4 131.3 -232.8 96.4C-249.3 61.6 -286.9 30.8 -324.5 0L0 0Z" fill="#cfddf9"></path><path d="M0 216.3C-28.8 214.5 -57.7 212.7 -82.8 199.9C-107.9 187 -129.2 163.2 -138.3 138.3C-147.4 113.4 -144.2 87.5 -155.2 64.3C-166.2 41.1 -191.3 20.5 -216.3 0L0 0Z" fill="#c5d6fa"></path><path d="M0 108.2C-14.4 107.3 -28.8 106.3 -41.4 99.9C-53.9 93.5 -64.6 81.6 -69.2 69.2C-73.7 56.7 -72.1 43.8 -77.6 32.1C-83.1 20.5 -95.6 10.3 -108.2 0L0 0Z" fill="#c0d3fa"></path></g><g transform="translate(0, 600)"><path d="M0 -540.8C47.6 -482.5 95.2 -424.2 169.1 -408.4C243.1 -392.5 343.5 -419 382.4 -382.4C421.3 -345.8 398.7 -246.1 414.8 -171.8C431 -97.6 485.9 -48.8 540.8 0L0 0Z" fill="#e3eaf7"></path><path d="M0 -432.7C38.1 -386 76.1 -339.4 135.3 -326.7C194.5 -314 274.8 -335.2 305.9 -305.9C337 -276.7 318.9 -196.9 331.9 -137.5C344.8 -78.1 388.7 -39 432.7 0L0 0Z" fill="#d9e3f8"></path><path d="M0 -324.5C28.5 -289.5 57.1 -254.5 101.5 -245C145.9 -235.5 206.1 -251.4 229.5 -229.5C252.8 -207.5 239.2 -147.7 248.9 -103.1C258.6 -58.5 291.5 -29.3 324.5 0L0 0Z" fill="#cfddf9"></path><path d="M0 -216.3C19 -193 38.1 -169.7 67.7 -163.3C97.3 -157 137.4 -167.6 153 -153C168.5 -138.3 159.5 -98.4 165.9 -68.7C172.4 -39 194.4 -19.5 216.3 0L0 0Z" fill="#c5d6fa"></path><path d="M0 -108.2C9.5 -96.5 19 -84.8 33.8 -81.7C48.6 -78.5 68.7 -83.8 76.5 -76.5C84.3 -69.2 79.7 -49.2 83 -34.4C86.2 -19.5 97.2 -9.8 108.2 0L0 0Z" fill="#c0d3fa"></path></g></svg>